Coordinates
version=1
nRows=14
nColumns=40
inDegrees=yes

Units are S.I. units (second, meters, Newtons, ...)
Angles are in degrees.

endheader
time	pelvis_tilt	pelvis_list	pelvis_rotation	pelvis_tx	pelvis_ty	pelvis_tz	hip_flexion_r	hip_adduction_r	hip_rotation_r	knee_angle_r	knee_angle_r_beta	ankle_angle_r	subtalar_angle_r	mtp_angle_r	hip_flexion_l	hip_adduction_l	hip_rotation_l	knee_angle_l	knee_angle_l_beta	ankle_angle_l	subtalar_angle_l	mtp_angle_l	lumbar_extension	lumbar_bending	lumbar_rotation	arm_flex_r	arm_add_r	arm_rot_r	elbow_flex_r	pro_sup_r	wrist_flex_r	wrist_dev_r	arm_flex_l	arm_add_l	arm_rot_l	elbow_flex_l	pro_sup_l	wrist_flex_l	wrist_dev_l
     40.40000000	     -5.09687503	     -8.16037029	      0.09983179	      1.06318525	      0.92519009	      0.49212284	     13.67201019	      6.56009642	    -14.96086016	     18.31679749	     18.31679749	     11.28838426	     -1.41380875	     -0.32349467	     31.56285390	    -16.61600291	      4.52997801	     72.16048888	     72.16048888	      0.50686817	    -19.09161271	     14.03696488	    -11.60502767	      6.24092989	      3.13924053	      5.18196235	    -13.26327093	     -1.62573509	     52.52075620	     45.90532790	      0.00000000	      0.00000000	      4.73680833	     -8.58793157	     -8.28555792	     47.97347626	     46.19458444	      0.00000000	      0.00000000
     40.41164286	     -5.20253647	     -8.05791987	      0.35508678	      1.06168397	      0.92535253	      0.49254102	     13.11276714	      6.52482909	    -15.04376945	     17.98044344	     17.98044344	     11.60479652	     -1.40472369	     -0.35482301	     33.52112679	    -16.44796544	      4.38122506	     71.22995135	     71.22995135	      2.12867912	    -19.22899461	     15.94673973	    -11.56289830	      6.06960589	      3.03951447	      7.33125176	    -13.62597369	     -1.08339009	     54.88592768	     45.78810358	      0.00000000	      0.00000000	      4.49976182	     -8.19548904	     -8.15815168	     43.55172763	     46.19045088	      0.00000000	      0.00000000
     40.42328571	     -5.23477870	     -7.99577819	      0.62386971	      1.06031747	      0.92558721	      0.49299633	     12.40494419	      6.56763811	    -15.08907742	     17.50952763	     17.50952763	     11.87588071	     -1.41422131	     -0.36037894	     35.15372128	    -16.32979105	      4.15807989	     69.91741723	     69.91741723	      3.23687762	    -19.33381744	     16.49781061	    -11.63874807	      5.90089497	      2.50240937	      9.87596296	    -13.54083145	     -1.20132018	     56.97160092	     45.72688257	      0.00000000	      0.00000000	      3.33390234	     -8.05757708	     -7.96422410	     41.14420197	     46.15538245	      0.00000000	      0.00000000
     40.43492857	     -5.25947835	     -7.90295425	      0.87598762	      1.05899736	      0.92583765	      0.49336264	     11.68328777	      6.57474325	    -15.12653425	     17.01615626	     17.01615626	     12.10802664	     -1.38221752	     -0.37907606	     36.57713830	    -16.11862090	      3.88261639	     68.30565753	     68.30565753	      4.34710066	    -19.38674312	     17.27673252	    -11.75131693	      5.71528602	      2.09184587	     12.33454164	    -13.50183721	     -1.15408065	     59.06486508	     45.66000612	      0.00000000	      0.00000000	      2.41882058	     -7.87164428	     -7.75108480	     38.37854453	     46.11793333	      0.00000000	      0.00000000
     40.44657143	     -5.35622878	     -7.78838126	      1.11758187	      1.05762557	      0.92591143	      0.49349556	     11.08520009	      6.52032131	    -15.22358897	     16.60165596	     16.60165596	     12.33613656	     -1.27055144	     -0.66436255	     37.97584302	    -15.68948755	      3.75854715	     66.52544640	     66.52544640	      5.88319123	    -19.39956875	     19.70117498	    -11.69684360	      5.56321048	      2.85577827	     13.77990208	    -14.62612103	     -0.24988803	     62.01262737	     45.51936936	      0.00000000	      0.00000000	      3.57017711	     -7.19556344	     -7.49255575	     32.03776161	     46.12768550	      0.00000000	      0.00000000
     40.45821429	     -5.39590611	     -7.68154234	      1.35334871	      1.05636662	      0.92605189	      0.49358565	     10.37911215	      6.49867751	    -15.23731292	     16.09772485	     16.09772485	     12.58435045	     -1.18607178	     -0.68515485	     39.03377954	    -15.26730959	      3.57167298	     64.28272074	     64.28272074	      6.57166169	    -19.40229227	     19.75832198	    -11.79647340	      5.37688468	      2.56971198	     16.15820633	    -14.52733093	     -0.59337375	     63.91309439	     45.47672040	      0.00000000	      0.00000000	      2.46849097	     -7.03523540	     -7.40643078	     30.50822405	     46.10594195	      0.00000000	      0.00000000
     40.46985714	     -5.58861568	     -7.54374155	      1.53930026	      1.05498795	      0.92594747	      0.49344183	      9.91981738	      6.39711980	    -15.26062482	     15.73241727	     15.73241727	     12.80776803	     -1.12739458	     -0.72690874	     40.07350747	    -14.67600802	      3.48009969	     61.74033652	     61.74033652	      7.14702261	    -19.37131853	     19.74760736	    -11.71155731	      5.16620077	      2.85457547	     18.40306332	    -14.95085426	     -0.86411947	     65.25857298	     45.45090328	      0.00000000	      0.00000000	      1.52473761	     -6.74653257	     -7.31983438	     29.54177196	     46.08093392	      0.00000000	      0.00000000
     40.48150000	     -5.62612448	     -7.36539135	      1.78435299	      1.05375701	      0.92610411	      0.49305881	      9.14930526	      6.26842108	    -15.39246984	     15.11253779	     15.11253779	     13.03316046	     -0.83396855	     -0.78465418	     40.70901527	    -13.91680148	      3.52958272	     58.81969387	     58.81969387	      7.59464484	    -19.26534021	     19.59366755	    -11.83206065	      4.94484803	      2.34783398	     20.73293902	    -14.68784520	     -0.79016445	     67.70644943	     45.37487745	      0.00000000	      0.00000000	      0.51949522	     -6.69882070	     -7.13407703	     27.71413596	     46.04555732	      0.00000000	      0.00000000
     40.49314286	     -5.78321434	     -7.25556619	      1.98491575	      1.05246517	      0.92590753	      0.49244582	      8.58043333	      6.12828773	    -15.77216771	     14.64430490	     14.64430490	     13.20918524	     -0.18208220	     -1.17508932	     41.28038211	    -13.12187601	      3.79945892	     55.58448689	     55.58448689	      7.48828262	    -19.12075438	     17.96207671	    -11.82424279	      4.85450304	      2.92333676	     22.07147971	    -15.87966776	      0.11874628	     71.59099307	     45.22079312	      0.00000000	      0.00000000	      0.59057224	     -6.36314981	     -6.60063009	     24.63675845	     45.99792435	      0.00000000	      0.00000000
     40.50478571	     -5.95253807	     -7.02643872	      2.13569101	      1.05119951	      0.92573229	      0.49163649	      8.03418871	      5.90025313	    -15.76445487	     14.19585013	     14.19585013	     13.48532673	     -0.02152008	     -1.22750177	     41.64547530	    -12.11373172	      4.25683823	     52.13648307	     52.13648307	      7.77881805	    -18.80702905	     17.67265778	    -11.80924707	      4.64443290	      2.94951174	     24.25826436	    -15.85159016	     -0.14744691	     73.31791988	     45.18346854	      0.00000000	      0.00000000	     -0.46761360	     -6.28533410	     -6.50769801	     24.01845685	     45.96701971	      0.00000000	      0.00000000
     40.51642857	     -6.11979267	     -6.88687790	      2.28836703	      1.05006665	      0.92545219	      0.49070030	      7.44922563	      5.74212162	    -15.98690913	     13.69909644	     13.69909644	     13.68263810	      0.46106303	     -1.31159064	     41.78571449	    -11.24035706	      4.81240082	     48.41454411	     48.41454411	      7.91476556	    -18.11602845	     16.66880546	    -11.77495159	      4.48737619	      2.80129901	     26.47764510	    -15.93157878	     -0.12789965	     75.75871919	     45.11424094	      0.00000000	      0.00000000	     -1.64124915	     -6.13206467	     -6.32347809	     23.57872575	     45.91421730	      0.00000000	      0.00000000
     40.52807143	     -6.25936296	     -6.71585416	      2.38969980	      1.04914317	      0.92505871	      0.48962299	      6.81616253	      5.54274240	    -16.17226335	     13.21928879	     13.21928879	     13.99850963	      0.98152890	     -1.43447051	     41.69924235	    -10.47927883	      5.27608576	     44.57331969	     44.57331969	      8.05823858	    -16.83598999	     15.43720124	    -11.74252180	      4.35156166	      2.87618796	     28.53256652	    -16.14781268	      0.07367720	     78.20683551	     45.03924792	      0.00000000	      0.00000000	     -2.82450364	     -6.04564872	     -6.10603484	     23.47720606	     45.84948390	      0.00000000	      0.00000000
     40.53971429	     -6.44601185	     -6.70506539	      2.45875282	      1.04834472	      0.92429495	      0.48856178	      6.26328391	      5.48691066	    -16.52075342	     12.81100108	     12.81100108	     14.30699417	      1.76213020	     -1.60693247	     41.46193595	    -10.01509835	      5.71747450	     40.50703462	     40.50703462	      7.08006198	    -15.42949604	     11.19941999	    -11.73153107	      4.37058647	      3.39332976	     30.09730189	    -17.32482807	      0.91039753	     81.86404878	     44.91958870	      0.00000000	      0.00000000	     -4.35303530	     -6.06927985	     -4.89156756	     24.94972456	     45.58218577	      0.00000000	      0.00000000
     40.55135714	     -6.73703021	     -6.80039493	      2.51557487	      1.04759115	      0.92319103	      0.48739290	      5.95417999	      5.55424131	    -16.52704932	     12.62979866	     12.62979866	     14.60889466	      1.82527437	     -1.72310383	     41.40326423	     -9.60088597	      6.43202216	     36.88628434	     36.88628434	      7.59062479	    -13.73078572	     11.34278311	    -11.38813671	      4.53283814	      3.80174908	     32.19367514	    -17.61782148	      0.57933884	     82.83455032	     44.90919003	      0.00000000	      0.00000000	     -5.29546886	     -5.88914998	     -4.79644039	     24.66750971	     45.54849234	      0.00000000	      0.00000000
